<?xml version="1.0" standalone="no"?>
<!DOCTYPE svg PUBLIC "-//W3C//DTD SVG 20010904//EN"
 "http://www.w3.org/TR/2001/REC-SVG-20010904/DTD/svg10.dtd">
<svg version="1.0" xmlns="http://www.w3.org/2000/svg"
 width="300.000000pt" height="300.000000pt" viewBox="0 0 300.000000 300.000000"
 preserveAspectRatio="xMidYMid meet">
<metadata>
Created by potrace 1.10, written by Peter Selinger 2001-2011
</metadata>
<g transform="translate(0.000000,300.000000) scale(0.100000,-0.100000)"
fill="#000000" stroke="none">
<path d="M0 2949 c0 -44 2 -50 15 -39 16 13 35 6 35 -15 0 -21 -19 -28 -35
-15 -13 11 -15 1 -15 -69 0 -45 4 -81 10 -81 5 0 14 -9 20 -20 8 -15 6 -24
-10 -40 -16 -16 -20 -33 -20 -94 0 -56 4 -75 15 -80 19 -7 19 -35 0 -42 -12
-5 -15 -32 -15 -155 l0 -149 25 -10 c14 -5 25 -13 25 -17 0 -12 -16 -35 -24
-34 -22 3 -26 -5 -26 -59 0 -47 3 -60 15 -60 8 0 15 -8 14 -17 0 -11 -3 -13
-6 -5 -2 6 -9 12 -14 12 -5 0 -9 -409 -9 -980 l0 -980 1500 0 1500 0 0 667 c0
606 -1 668 -17 685 -15 17 -15 19 0 36 14 15 17 42 17 151 0 125 -1 134 -22
152 l-23 19 23 19 c18 16 22 29 22 82 0 44 -5 68 -17 81 -15 17 -15 19 0 36
15 17 17 69 17 545 l0 527 -431 0 c-309 0 -428 -3 -423 -11 10 -16 -17 -59
-37 -59 -26 0 -29 22 -6 48 l20 22 -179 0 c-117 0 -184 -4 -191 -11 -8 -8 -17
-8 -31 0 -14 7 -158 11 -449 11 -415 0 -429 -1 -446 -20 -17 -21 -42 -18 -51
6 -8 22 -233 20 -258 -3 -17 -15 -19 -15 -36 0 -16 15 -49 17 -250 17 l-232 0
0 -51z m995 31 c7 -11 -12 -40 -25 -40 -11 0 -21 30 -14 41 7 12 31 11 39 -1z
m-866 -24 c15 -18 3 -46 -19 -46 -10 0 -21 7 -24 16 -6 16 9 44 24 44 4 0 13
-6 19 -14z m1001 4 c0 -5 6 -10 14 -10 7 0 19 -7 26 -16 18 -21 -13 -55 -32
-36 -7 7 -20 12 -29 12 -22 0 -33 28 -18 46 13 16 39 19 39 4z m704 -13 c16
-25 -16 -56 -38 -37 -19 15 -20 32 -4 48 15 15 28 11 42 -11z m436 -18 c0 -3
-6 -12 -14 -18 -11 -9 -18 -8 -30 5 -16 15 -16 18 1 36 16 18 18 18 30 2 7
-10 13 -21 13 -25z m-1536 -8 c15 -16 14 -19 -4 -36 -18 -17 -21 -17 -45 -1
-31 20 -43 45 -26 55 18 11 57 2 75 -18z m1456 15 c0 -8 -5 -18 -11 -22 -14
-8 -33 11 -25 25 10 16 36 13 36 -3z m-809 -22 c18 -22 0 -48 -37 -51 -38 -3
-48 17 -22 44 25 27 41 29 59 7z m1138 -30 c-24 -25 -49 -22 -49 7 0 24 39 41
58 26 10 -8 8 -15 -9 -33z m-939 -20 c11 -12 10 -18 -4 -32 -16 -16 -18 -16
-31 2 -11 14 -12 23 -4 33 15 17 24 16 39 -3z m-116 -15 c8 -12 19 -18 24 -15
13 8 35 -21 29 -38 -3 -7 -1 -18 5 -24 8 -8 6 -24 -6 -57 -19 -49 -34 -56 -54
-24 -11 18 -11 24 4 40 9 10 14 19 9 19 -4 0 -1 7 6 16 11 14 11 18 -4 29 -9
6 -13 16 -9 21 4 4 -1 2 -10 -5 -32 -24 -64 19 -36 47 17 17 25 15 42 -9z
m330 5 c20 -8 20 -28 0 -44 -12 -11 -18 -10 -31 3 -13 13 -14 19 -3 31 14 18
13 18 34 10z m132 -5 c11 -18 -14 -35 -28 -20 -11 10 -10 11 5 6 19 -8 24 10
5 18 -10 4 -10 6 -1 6 6 1 15 -4 19 -10z m304 -34 c0 -6 -5 -16 -12 -23 -9 -9
-16 -8 -29 4 -17 15 -17 18 -2 41 16 24 17 24 30 7 7 -10 13 -23 13 -29z m-74
-3 c2 -36 -10 -49 -30 -33 -9 7 -16 7 -24 -1 -9 -9 -15 -9 -24 1 -11 10 -9 11
7 5 11 -4 17 -4 13 1 -4 4 0 21 8 37 20 39 48 34 50 -10z m418 -2 c-6 -6 -10
-3 -10 10 0 13 4 16 10 10 7 -7 7 -13 0 -20z m-1888 5 c4 -8 1 -22 -6 -30 -11
-14 -15 -14 -31 1 -14 13 -16 20 -8 31 15 17 38 17 45 -2z m1034 -16 c0 -20
-24 -26 -35 -9 -8 13 14 42 26 34 5 -3 9 -14 9 -25z m-899 -5 c11 -14 10 -18
-6 -30 -25 -18 -32 -18 -44 4 -19 35 24 57 50 26z m573 -2 c2 -4 -4 -8 -14 -8
-10 0 -16 4 -14 8 3 4 9 8 14 8 5 0 11 -4 14 -8z m205 -48 c-15 -18 -28 -18
-36 2 -8 20 17 36 34 22 10 -8 10 -14 2 -24z m911 11 c0 -7 -6 -18 -14 -24
-20 -17 -44 13 -26 33 13 17 40 10 40 -9z m-1602 -18 c4 -20 -25 -34 -40 -19
-15 15 -1 44 19 40 10 -2 19 -11 21 -21z m1055 4 c18 -2 4 -31 -22 -44 -25
-12 -33 -13 -48 -2 -17 13 -17 14 0 32 9 11 27 19 40 17 12 -1 25 -3 30 -3z
m621 -24 c7 -11 7 -20 0 -27 -15 -15 -44 -2 -44 19 0 35 25 39 44 8z m-1174
-8 c0 -12 -27 -12 -35 1 -4 6 1 7 11 3 13 -5 15 -3 9 7 -5 9 -4 11 3 6 7 -4
12 -11 12 -17z m-1217 -25 c-7 -18 -17 -18 -32 -1 -8 10 -7 17 1 25 15 15 39
-3 31 -24z m506 -60 c-15 -18 -28 -18 -36 2 -8 20 17 36 34 22 10 -8 10 -14 2
-24z m-377 -20 c-6 -11 -13 -27 -16 -37 -8 -24 -50 -19 -54 6 -2 11 9 32 24
48 24 25 30 27 42 15 10 -10 11 -19 4 -32z m1712 21 c13 -13 13 -20 3 -36 -15
-24 -50 -21 -55 4 -4 18 14 47 29 47 4 0 15 -7 23 -15z m-577 -11 c8 -22 -21
-44 -48 -37 -26 7 -36 32 -18 44 23 14 59 10 66 -7z m-1377 -25 c13 -22 -1
-49 -26 -49 -18 0 -28 38 -14 55 17 20 27 19 40 -6z m454 -8 c9 -10 31 -21 47
-25 25 -5 30 -10 27 -28 -4 -28 -42 -36 -66 -15 -9 8 -25 17 -35 20 -24 9 -32
34 -17 52 16 20 23 19 44 -4z m-127 -3 c13 -22 11 -79 -4 -85 -19 -7 -24 -1
-29 42 -6 50 13 75 33 43z m1900 -45 c3 -8 -2 -22 -11 -31 -16 -16 -19 -15
-46 17 -21 25 -27 38 -19 47 12 15 67 -9 76 -33z m653 -60 c0 -20 -27 -28 -45
-13 -14 11 -14 15 1 31 13 14 20 16 31 8 7 -6 13 -18 13 -26z m-1280 -10 c47
-8 89 -19 95 -24 5 -5 16 -9 25 -9 8 0 38 -11 65 -25 28 -13 53 -25 58 -25 9
0 117 -86 132 -105 15 -18 27 -19 37 -1 11 20 42 21 57 2 9 -11 10 -25 3 -50
-8 -29 -7 -40 7 -58 10 -13 24 -35 32 -50 8 -14 38 -66 66 -115 29 -48 53
-100 53 -115 0 -33 10 -59 20 -53 4 2 5 -6 3 -20 -3 -13 0 -38 6 -57 13 -41
16 -104 6 -141 -6 -24 -5 -26 11 -21 11 4 28 15 39 25 21 19 104 57 145 67 36
9 159 8 202 -1 64 -14 53 -53 -27 -95 -22 -11 -48 -29 -57 -41 -33 -39 -50
-70 -43 -81 3 -5 1 -10 -4 -10 -6 0 -10 -11 -9 -24 3 -29 15 -24 28 10 10 24
34 32 45 14 3 -5 0 -19 -6 -32 -7 -13 -15 -30 -19 -38 -4 -8 -16 -15 -26 -15
-15 0 -18 -6 -15 -25 2 -14 4 -31 5 -39 1 -18 -40 -41 -76 -41 -30 0 -68 -41
-68 -73 0 -26 -38 -67 -61 -67 -33 0 -36 -63 -6 -146 11 -31 12 -45 4 -53 -18
-18 -30 -13 -86 36 -64 56 -109 63 -161 24 -22 -16 -40 -21 -59 -18 -20 4 -33
-1 -51 -20 -45 -48 -183 -143 -207 -143 -26 0 -113 -40 -113 -53 0 -4 -5 -5
-10 -2 -6 4 -24 -1 -41 -9 -17 -9 -35 -13 -40 -10 -5 3 -17 0 -28 -6 -11 -5
-77 -13 -146 -16 -102 -4 -132 -2 -157 10 -17 9 -52 16 -77 16 -25 0 -57 6
-71 13 -14 7 -52 24 -85 37 -33 13 -62 26 -65 29 -7 8 -110 71 -116 71 -10 0
-64 58 -64 69 0 6 -4 11 -8 11 -15 0 -47 34 -60 63 -8 19 -18 27 -27 23 -9 -3
-12 0 -8 10 3 9 -1 14 -13 15 -11 0 -14 3 -7 6 9 3 3 21 -18 59 -17 30 -28 54
-24 54 3 0 3 5 -1 12 -5 8 -10 6 -16 -8 -6 -14 -7 -12 -3 9 4 18 0 33 -10 43
-8 9 -13 19 -10 24 3 5 0 21 -5 36 -14 36 -21 112 -23 266 -1 69 -5 124 -8
122 -4 -2 -12 3 -19 11 -10 12 -10 18 0 30 7 9 19 14 27 11 7 -3 13 0 14 7 0
7 2 20 4 30 2 9 -3 17 -10 17 -7 0 -15 6 -18 13 -7 19 4 37 22 37 11 0 28 20
46 54 27 52 27 55 11 72 -13 12 -17 27 -13 50 4 26 1 36 -16 47 -19 12 -20 17
-8 31 7 9 20 16 28 16 19 0 28 -27 14 -44 -9 -11 -8 -15 5 -20 9 -3 20 -4 25
-1 5 4 6 -1 3 -9 -9 -25 14 -19 27 7 10 19 41 61 68 92 5 6 19 18 31 29 19 15
24 16 32 5 7 -11 8 -9 4 4 -8 24 24 66 87 112 29 21 57 44 62 49 6 6 41 26 78
44 37 17 70 39 74 47 4 12 8 13 19 4 11 -9 28 -8 74 5 129 36 253 39 420 9z
m487 -19 c7 -18 -17 -38 -31 -24 -11 11 -1 40 14 40 6 0 13 -7 17 -16z m702
-18 c17 -20 -13 -43 -34 -26 -12 10 -13 16 -4 26 6 8 15 14 19 14 4 0 13 -6
19 -14z m-1923 -31 c3 -8 -1 -21 -9 -29 -13 -14 -17 -14 -27 -1 -7 8 -10 22
-6 30 7 19 35 19 42 0z m-106 -39 c0 -20 -27 -39 -45 -32 -18 6 -20 37 -3 54
14 14 48 -2 48 -22z m1280 19 c16 -19 6 -43 -22 -54 -17 -6 -26 -4 -36 10 -27
39 28 81 58 44z m-1480 -15 c0 -21 -24 -28 -35 -10 -8 14 3 30 21 30 8 0 14
-9 14 -20z m-241 -51 c-11 -22 -30 -24 -47 -7 -16 16 -15 23 4 43 15 15 18 15
35 -1 14 -13 16 -21 8 -35z m1875 -1 c12 -20 -8 -49 -29 -42 -20 8 -27 34 -14
51 14 16 29 13 43 -9z m-1466 -82 c3 -16 -24 -34 -35 -23 -3 4 -7 17 -8 31 -3
21 0 24 18 17 12 -5 23 -16 25 -25z m1552 19 c13 -16 6 -35 -15 -35 -18 0 -28
17 -21 35 7 19 20 19 36 0z m-1956 -21 c20 -8 21 -28 2 -43 -17 -14 -41 11
-32 34 6 17 8 17 30 9z m1843 -50 c3 -8 1 -20 -6 -27 -14 -14 -47 15 -37 32
10 16 36 13 43 -5z m-2132 -14 c4 -6 1 -18 -6 -26 -11 -13 -14 -13 -27 0 -8 8
-11 19 -8 25 9 14 33 14 41 1z m2395 -133 c0 -16 -41 -57 -57 -57 -27 0 -26
31 2 60 22 23 32 27 42 19 7 -6 13 -16 13 -22z m159 -41 c13 -16 6 -42 -14
-50 -21 -8 -48 34 -33 51 14 17 33 17 47 -1z m-96 -29 c11 -33 6 -41 -22 -32
-22 7 -36 38 -26 55 12 19 38 6 48 -23z m-2019 -33 c18 -7 21 -30 5 -39 -11
-8 -69 13 -69 25 0 19 32 26 64 14z m2059 -96 c16 -39 12 -58 -13 -58 -32 0
-43 25 -25 59 8 17 18 31 20 31 3 0 11 -15 18 -32z m-97 -35 c-1 -56 -17 -64
-46 -23 -19 26 -20 33 -8 48 35 45 56 36 54 -25z m-2331 16 c8 -25 -1 -35 -36
-44 -35 -9 -44 16 -18 44 25 27 46 27 54 0z m2265 -44 c0 -19 -20 -29 -32 -17
-15 15 -2 43 17 36 8 -3 15 -12 15 -19z m-2065 1 c10 -10 11 -16 2 -25 -23
-23 -53 -7 -41 23 8 20 21 20 39 2z m-112 -20 c3 -8 -2 -21 -12 -30 -16 -15
-20 -15 -31 -1 -7 8 -10 22 -6 30 7 19 42 20 49 1z m47 -31 c0 -7 -6 -18 -14
-24 -20 -17 -44 13 -26 33 13 17 40 10 40 -9z m184 -10 c-4 -8 -2 -15 4 -15 6
0 13 6 15 13 4 9 6 9 6 -1 1 -14 -26 -28 -36 -19 -6 7 3 37 11 37 3 0 3 -7 0
-15z m-310 -13 c3 -5 -1 -9 -9 -9 -8 0 -12 4 -9 9 3 4 7 8 9 8 2 0 6 -4 9 -8z
m2736 -18 c0 -20 -30 -30 -40 -13 -11 17 7 40 26 32 8 -3 14 -12 14 -19z
m-2600 -9 c10 -12 9 -16 -4 -21 -11 -4 -15 -13 -10 -26 6 -20 -9 -38 -32 -38
-19 0 -26 32 -11 49 8 9 17 24 20 34 8 21 21 22 37 2z m61 -2 c-11 -5 -11 -7
0 -14 11 -7 10 -9 -3 -9 -10 0 -18 7 -18 15 0 8 8 15 18 14 12 0 13 -2 3 -6z
m-196 -43 c-3 -5 -1 -10 6 -10 7 0 10 -3 6 -6 -9 -9 -28 6 -22 17 4 5 8 9 11
9 3 0 2 -4 -1 -10z m63 -103 c16 -19 0 -36 -33 -34 -34 3 -47 32 -18 40 32 8
40 7 51 -6z m209 -188 c16 -16 5 -39 -17 -39 -25 0 -35 18 -20 35 15 18 22 19
37 4z m2419 -74 c4 -8 14 -15 24 -15 18 0 30 -25 23 -47 -3 -7 -13 -13 -23
-13 -16 0 -22 7 -30 35 -2 6 -10 15 -18 21 -8 6 -12 16 -8 22 10 17 26 15 32
-3z"/>
<path d="M965 2970 c-3 -5 1 -10 10 -10 9 0 13 5 10 10 -3 6 -8 10 -10 10 -2
0 -7 -4 -10 -10z"/>
<path d="M100 2934 c0 -8 5 -12 10 -9 6 3 10 10 10 16 0 5 -4 9 -10 9 -5 0
-10 -7 -10 -16z"/>
<path d="M1102 2939 c2 -6 8 -10 13 -10 5 0 11 4 13 10 2 6 -4 11 -13 11 -9 0
-15 -5 -13 -11z"/>
<path d="M1140 2920 c0 -5 5 -10 10 -10 6 0 10 5 10 10 0 6 -4 10 -10 10 -5 0
-10 -4 -10 -10z"/>
<path d="M1795 2941 c-7 -12 12 -24 25 -16 11 7 4 25 -10 25 -5 0 -11 -4 -15
-9z"/>
<path d="M2236 2941 c-4 -7 -5 -15 -2 -18 9 -9 19 4 14 18 -4 11 -6 11 -12 0z"/>
<path d="M672 2910 c8 -12 20 -18 33 -15 11 2 22 4 25 4 2 1 -2 7 -8 13 -10
10 -15 10 -22 -2 -8 -12 -10 -12 -16 3 -3 9 -10 17 -15 17 -5 0 -4 -9 3 -20z"/>
<path d="M2160 2930 c0 -5 5 -10 10 -10 6 0 10 5 10 10 0 6 -4 10 -10 10 -5 0
-10 -4 -10 -10z"/>
<path d="M1335 2894 c-19 -14 -19 -14 5 -11 13 2 26 9 28 15 5 16 -9 14 -33
-4z"/>
<path d="M2480 2890 c0 -5 5 -10 10 -10 6 0 10 5 10 10 0 6 -4 10 -10 10 -5 0
-10 -4 -10 -10z"/>
<path d="M1550 2850 c0 -5 5 -10 10 -10 6 0 10 5 10 10 0 6 -4 10 -10 10 -5 0
-10 -4 -10 -10z"/>
<path d="M1430 2835 c0 -8 5 -15 10 -15 6 0 10 7 10 15 0 8 -4 15 -10 15 -5 0
-10 -7 -10 -15z"/>
<path d="M1485 2810 c-3 -5 -2 -10 4 -10 5 0 13 5 16 10 3 6 2 10 -4 10 -5 0
-13 -4 -16 -10z"/>
<path d="M1495 2761 c-3 -5 -1 -12 5 -16 5 -3 10 1 10 9 0 18 -6 21 -15 7z"/>
<path d="M1472 2709 c2 -6 8 -10 13 -10 5 0 11 4 13 10 2 6 -4 11 -13 11 -9 0
-15 -5 -13 -11z"/>
<path d="M1770 2830 c0 -5 5 -10 10 -10 6 0 10 5 10 10 0 6 -4 10 -10 10 -5 0
-10 -4 -10 -10z"/>
<path d="M2196 2821 c-4 -5 -2 -12 3 -15 5 -4 12 -2 15 3 4 5 2 12 -3 15 -5 4
-12 2 -15 -3z"/>
<path d="M2126 2825 c-3 -8 -3 -22 0 -30 7 -17 24 -20 24 -5 0 6 -5 10 -11 10
-6 0 -8 9 -4 20 7 23 0 27 -9 5z"/>
<path d="M655 2811 c-3 -5 -1 -12 5 -16 5 -3 10 1 10 9 0 18 -6 21 -15 7z"/>
<path d="M1690 2800 c0 -5 5 -10 10 -10 6 0 10 5 10 10 0 6 -4 10 -10 10 -5 0
-10 -4 -10 -10z"/>
<path d="M786 2792 c-3 -6 -1 -14 5 -17 15 -10 25 3 12 16 -7 7 -13 7 -17 1z"/>
<path d="M2480 2750 c0 -5 5 -10 10 -10 6 0 10 5 10 10 0 6 -4 10 -10 10 -5 0
-10 -4 -10 -10z"/>
<path d="M880 2734 c0 -8 5 -12 10 -9 6 4 8 11 5 16 -9 14 -15 11 -15 -7z"/>
<path d="M1905 2719 c-10 -15 3 -25 16 -12 7 7 7 13 1 17 -6 3 -14 1 -17 -5z"/>
<path d="M1940 2719 c0 -5 5 -7 10 -4 6 3 10 8 10 11 0 2 -4 4 -10 4 -5 0 -10
-5 -10 -11z"/>
<path d="M2550 2710 c0 -5 7 -10 16 -10 8 0 12 5 9 10 -3 6 -10 10 -16 10 -5
0 -9 -4 -9 -10z"/>
<path d="M675 2630 c3 -5 8 -10 11 -10 2 0 4 5 4 10 0 6 -5 10 -11 10 -5 0 -7
-4 -4 -10z"/>
<path d="M300 2620 c0 -5 5 -10 11 -10 5 0 7 5 4 10 -3 6 -8 10 -11 10 -2 0
-4 -4 -4 -10z"/>
<path d="M270 2585 c0 -8 5 -15 10 -15 6 0 10 7 10 15 0 8 -4 15 -10 15 -5 0
-10 -7 -10 -15z"/>
<path d="M2005 2609 c-10 -15 3 -25 16 -12 7 7 7 13 1 17 -6 3 -14 1 -17 -5z"/>
<path d="M1422 2611 c4 -13 18 -16 19 -4 0 4 -5 9 -11 12 -7 2 -11 -2 -8 -8z"/>
<path d="M1390 2600 c0 -5 5 -10 10 -10 6 0 10 5 10 10 0 6 -4 10 -10 10 -5 0
-10 -4 -10 -10z"/>
<path d="M47 2583 c-12 -11 -8 -23 8 -23 8 0 15 7 15 15 0 16 -12 20 -23 8z"/>
<path d="M500 2565 c0 -9 5 -15 11 -13 6 2 11 8 11 13 0 5 -5 11 -11 13 -6 2
-11 -4 -11 -13z"/>
<path d="M550 2530 c0 -5 5 -10 10 -10 6 0 10 5 10 10 0 6 -4 10 -10 10 -5 0
-10 -4 -10 -10z"/>
<path d="M580 2530 c0 -5 5 -10 10 -10 6 0 10 5 10 10 0 6 -4 10 -10 10 -5 0
-10 -4 -10 -10z"/>
<path d="M380 2560 c0 -5 5 -10 10 -10 6 0 10 5 10 10 0 6 -4 10 -10 10 -5 0
-10 -4 -10 -10z"/>
<path d="M390 2510 c0 -5 5 -10 10 -10 6 0 10 5 10 10 0 6 -4 10 -10 10 -5 0
-10 -4 -10 -10z"/>
<path d="M2262 2528 c6 -18 28 -21 28 -4 0 9 -7 16 -16 16 -9 0 -14 -5 -12
-12z"/>
<path d="M2926 2481 c-4 -7 -5 -15 -2 -18 9 -9 19 4 14 18 -4 11 -6 11 -12 0z"/>
<path d="M1459 2466 c-2 -3 -36 -8 -74 -11 -39 -4 -94 -13 -122 -21 -29 -9
-62 -12 -74 -9 -13 4 -19 3 -16 -2 3 -5 -17 -20 -45 -32 -93 -40 -248 -156
-248 -185 0 -6 21 10 48 36 40 39 115 87 212 136 34 16 125 43 114 33 -5 -5
-31 -16 -59 -25 -115 -38 -325 -182 -364 -251 -9 -15 -10 -15 -7 -2 3 9 2 17
-3 17 -9 0 -31 -45 -31 -64 0 -6 -7 -21 -16 -32 -15 -19 -15 -14 2 31 5 15 2
13 -14 -7 -12 -14 -22 -36 -22 -47 0 -12 -6 -21 -15 -21 -8 0 -16 -7 -16 -15
-1 -8 -2 -21 -3 -27 -1 -7 -8 -21 -17 -31 -19 -21 -42 -94 -34 -107 3 -5 1
-11 -4 -15 -6 -3 -8 -12 -4 -20 3 -8 0 -15 -5 -15 -11 0 -17 -24 -27 -115 -3
-27 -8 -58 -11 -68 -5 -16 -3 -17 14 -8 17 9 19 8 15 -8 -3 -11 -11 -17 -18
-15 -9 4 -11 -3 -8 -23 4 -32 10 -82 12 -101 1 -7 5 -11 10 -7 5 3 12 1 15 -4
3 -5 -1 -12 -9 -15 -12 -4 -13 -10 -5 -25 12 -24 13 -34 1 -27 -14 9 0 -36 16
-56 8 -9 12 -22 8 -28 -4 -7 2 -25 14 -41 12 -16 19 -34 15 -40 -4 -6 6 -22
22 -35 16 -13 23 -23 16 -24 -10 0 -10 -4 0 -22 18 -32 50 -68 60 -68 13 0
-11 41 -36 62 -16 13 -17 17 -6 18 8 0 25 -16 38 -36 18 -27 21 -39 12 -49
-14 -17 -3 -38 16 -31 18 7 44 -3 44 -17 0 -7 -4 -7 -12 1 -15 15 -28 16 -28
1 0 -5 13 -15 29 -20 16 -6 32 -18 36 -27 5 -13 2 -13 -15 3 -11 10 -20 14
-20 9 0 -9 92 -77 139 -103 14 -8 31 -20 39 -27 12 -13 34 -18 55 -15 4 0 7
-2 7 -7 0 -14 60 -34 73 -24 7 5 20 8 30 6 32 -5 32 -14 1 -14 -52 -1 -3 -19
62 -23 41 -2 58 -7 56 -16 -2 -10 27 -12 135 -8 144 5 215 19 245 49 10 10 23
18 30 18 6 0 3 -7 -8 -15 -23 -17 -15 -19 23 -4 20 7 24 12 14 18 -9 6 -10 11
-2 15 6 4 11 2 11 -4 0 -17 41 -1 62 24 13 15 16 17 12 4 -5 -15 -2 -16 25 -8
37 10 80 41 81 57 0 6 5 15 12 19 7 4 8 3 4 -4 -19 -31 21 -6 76 48 59 57 61
61 43 74 -11 8 -17 17 -14 21 4 3 20 -10 36 -28 l30 -34 27 23 c60 52 123 44
199 -26 l53 -48 -23 66 c-12 37 -23 76 -23 87 0 28 24 71 39 67 24 -5 49 18
53 50 3 18 9 42 13 52 6 15 5 17 -5 11 -9 -5 -11 -4 -6 4 4 6 12 9 17 6 5 -4
19 1 31 9 12 9 42 16 66 16 39 0 42 2 33 19 -6 10 -13 40 -15 67 -3 26 -11 51
-18 57 -10 7 -9 8 3 4 11 -4 18 6 27 37 14 52 66 107 134 142 l53 28 -32 6
c-54 12 -196 12 -188 1 3 -7 0 -8 -9 -5 -17 7 -85 -22 -138 -59 -48 -32 -110
-106 -101 -119 3 -6 1 -8 -5 -4 -6 3 -15 -8 -22 -28 -6 -19 -16 -37 -23 -39
-7 -2 3 -11 20 -21 33 -16 48 -48 41 -83 -3 -14 -11 -17 -37 -15 -44 5 -106
-23 -120 -54 -8 -18 -19 -24 -43 -24 -18 0 -42 -3 -54 -6 -25 -7 -64 23 -66
51 -1 11 2 31 6 44 l8 23 -73 -5 c-41 -3 -103 -15 -138 -26 -73 -24 -174 -79
-166 -90 2 -5 -4 -16 -15 -26 -11 -10 -20 -15 -20 -10 0 4 8 14 18 21 9 7 12
14 6 14 -6 0 -19 -9 -29 -20 -10 -11 -14 -20 -9 -20 5 0 0 -7 -10 -15 -30 -22
-12 -30 77 -32 54 -2 77 1 67 7 -8 5 -46 8 -85 6 -42 -2 -60 0 -45 4 31 10
107 10 137 2 26 -8 18 -28 -12 -34 -11 -1 -23 -7 -27 -13 -5 -6 -8 -6 -8 2 0
8 -18 11 -55 10 -41 -2 -60 2 -71 14 -13 15 -13 20 6 52 12 20 36 45 53 56 56
36 71 46 97 62 21 13 89 37 112 39 4 0 26 7 49 15 48 17 60 19 39 5 -15 -11
-12 -10 68 6 12 2 22 0 22 -6 0 -21 28 -9 34 15 4 14 11 25 16 25 5 0 2 -15
-8 -32 -27 -51 -28 -93 0 -112 28 -20 42 -20 62 0 9 8 16 11 16 5 0 -8 7 -7
20 1 11 7 20 18 20 25 0 7 6 13 14 13 7 0 16 9 19 20 4 16 0 20 -18 20 -30 0
-39 14 -20 30 19 16 19 31 0 24 -8 -4 -15 -1 -15 6 0 6 4 9 9 5 5 -3 12 -1 16
5 3 5 12 10 18 10 8 0 8 -3 -1 -9 -11 -7 -11 -9 2 -14 9 -4 20 1 26 11 10 15
10 15 8 -2 -2 -10 3 -21 11 -24 9 -3 11 0 6 8 -6 9 -4 11 5 5 10 -6 7 -12 -10
-25 -29 -22 -35 -59 -8 -52 15 4 16 7 6 21 -9 12 -7 11 9 -2 22 -19 41 -8 27
15 -4 7 -3 8 4 4 8 -5 12 1 12 14 0 12 -4 18 -10 15 -5 -3 -10 0 -10 8 0 7
-11 20 -25 27 -14 7 -25 18 -25 23 0 5 7 4 15 -3 9 -7 18 -10 21 -7 10 10 12
42 3 58 -6 12 -3 18 10 22 15 3 18 1 14 -11 -4 -10 -2 -13 5 -8 7 4 12 16 12
26 0 10 6 23 14 27 16 9 35 186 20 181 -5 -2 -9 2 -9 7 0 6 4 9 8 7 14 -4 -5
42 -21 52 -11 6 -12 10 -2 16 10 6 10 15 1 40 -6 18 -11 45 -11 59 0 15 -16
51 -35 81 -19 30 -35 60 -35 66 0 6 -11 21 -25 34 -14 13 -25 31 -25 40 0 9
-25 43 -55 76 -41 45 -56 56 -63 45 -12 -17 -24 1 -16 22 4 11 -9 26 -38 46
-24 17 -48 35 -55 41 -7 5 -25 16 -40 22 -15 7 -30 16 -33 19 -9 12 -80 38
-80 29 0 -9 -51 -3 -60 7 -3 3 5 3 18 0 12 -3 22 -1 22 3 0 11 -76 24 -90 15
-5 -3 -10 -2 -10 3 0 5 -13 12 -29 14 -17 2 -28 1 -26 -3 3 -4 -2 -9 -10 -12
-9 -4 -12 -1 -8 9 4 10 -3 14 -23 15 -16 0 -47 3 -70 5 -22 3 -42 3 -45 0z
m36 -16 c3 -5 1 -10 -4 -10 -6 0 -11 5 -11 10 0 6 2 10 4 10 3 0 8 -4 11 -10z
m149 -26 c3 -8 2 -12 -4 -9 -6 3 -10 10 -10 16 0 14 7 11 14 -7z m76 -14 c0
-5 -4 -10 -10 -10 -5 0 -10 5 -10 10 0 6 5 10 10 10 6 0 10 -4 10 -10z m123
-38 c-2 -9 26 -25 48 -27 3 0 21 -13 40 -30 19 -16 33 -29 30 -27 -2 1 -14 -6
-25 -15 -12 -10 -15 -11 -8 -3 15 18 16 34 0 24 -6 -4 -8 -3 -4 4 4 6 -25 26
-74 51 -73 37 -77 40 -43 37 21 -2 37 -8 36 -14z m-99 -7 c-4 -8 -8 -15 -10
-15 -2 0 -4 7 -4 15 0 8 4 15 10 15 5 0 7 -7 4 -15z m146 -55 c0 -5 -5 -10
-11 -10 -5 0 -7 5 -4 10 3 6 8 10 11 10 2 0 4 -4 4 -10z m125 -30 c3 -5 1 -10
-5 -10 -6 0 -8 -5 -4 -12 5 -9 2 -9 -9 1 -9 7 -17 17 -17 22 0 12 27 11 35 -1z
m-35 -45 c0 -5 -5 -3 -10 5 -5 8 -10 20 -10 25 0 6 5 3 10 -5 5 -8 10 -19 10
-25z m46 -40 c-1 -8 -8 -21 -16 -28 -10 -10 -11 -9 -4 3 5 8 9 18 10 23 3 14
4 17 8 17 2 0 3 -7 2 -15z m102 -38 c17 -37 22 -58 12 -52 -6 3 -10 13 -10 22
0 9 -10 27 -22 40 -15 16 -17 22 -7 18 9 -3 21 -16 27 -28z m-80 12 c-10 -5
-18 -14 -18 -20 0 -5 11 -2 24 6 19 13 26 14 32 3 4 -7 3 -10 -1 -5 -5 4 -19
0 -31 -8 -15 -10 -25 -11 -29 -4 -8 12 12 39 29 39 6 0 3 -5 -6 -11z m-725
-55 c-16 -12 -16 -13 7 -8 20 5 22 3 10 -5 -8 -6 -23 -8 -34 -5 -10 4 -22 0
-27 -7 -12 -20 -11 -31 3 -23 7 4 8 3 4 -5 -4 -6 -10 -9 -14 -7 -4 2 -12 -2
-19 -9 -10 -10 -9 -15 4 -19 9 -4 13 -9 10 -13 -4 -3 -2 -13 4 -22 6 -9 0 -3
-15 12 -27 29 -36 64 -13 51 8 -5 8 -2 -2 9 -12 15 -9 21 11 18 4 0 5 6 2 14
-4 10 0 15 16 15 11 0 19 4 16 9 -8 12 14 19 37 13 17 -4 17 -5 0 -18z m750
-13 c-4 -15 -8 -19 -13 -11 -4 7 -13 9 -20 5 -9 -6 -9 -9 1 -16 11 -7 10 -9
-3 -9 -13 0 -17 6 -14 23 1 12 8 23 14 23 7 1 17 2 23 3 5 0 7 7 3 14 -5 8 -4
9 4 2 6 -6 9 -21 5 -34z m87 -25 c0 -2 -6 -3 -12 -2 -7 0 -13 -3 -13 -9 0 -5
5 -9 11 -7 7 1 16 -3 20 -9 4 -8 3 -9 -4 -5 -7 4 -12 2 -12 -3 0 -6 -3 -10 -7
-8 -5 1 -9 -2 -10 -8 -1 -5 6 -9 15 -7 10 2 13 0 6 -5 -6 -4 -13 -16 -17 -25
-3 -10 -14 -18 -23 -18 -11 0 -14 5 -9 18 4 9 8 22 9 27 1 6 5 16 9 23 5 7 3
12 -7 12 -21 0 -21 16 0 24 8 3 12 11 8 17 -4 8 0 8 15 0 11 -7 21 -13 21 -15z
m-230 -6 c0 -5 -5 -10 -11 -10 -5 0 -7 5 -4 10 3 6 8 10 11 10 2 0 4 -4 4 -10z
m160 -7 c-1 -13 -30 -48 -30 -36 0 7 5 15 10 18 6 4 8 11 5 16 -4 5 -1 9 4 9
6 0 11 -3 11 -7z m-94 -45 c15 -19 16 -20 2 -9 -12 9 -18 10 -18 2 0 -6 -8
-11 -17 -11 -17 1 -17 1 0 11 9 6 15 14 12 20 -11 17 2 9 21 -13z m104 3 c0
-5 -7 -12 -16 -15 -14 -5 -15 -4 -4 9 14 17 20 19 20 6z m84 0 c3 -5 -1 -14
-8 -20 -12 -10 -13 -8 -9 8 6 23 9 25 17 12z m-270 -37 c3 -8 2 -12 -4 -9 -6
3 -10 10 -10 16 0 14 7 11 14 -7z m308 -24 c11 0 11 -2 0 -8 -7 -5 -10 -17 -6
-28 5 -16 4 -16 -5 -4 -9 12 -13 13 -20 2 -6 -11 -10 -9 -14 7 -3 12 -1 19 4
15 18 -11 29 7 14 22 -8 9 -12 21 -8 27 4 6 9 2 14 -11 5 -12 14 -22 21 -22z
m-192 -11 c0 -4 -7 -9 -15 -13 -9 -3 -15 0 -15 8 0 7 7 13 15 13 8 0 15 -4 15
-8z m94 -6 c-10 -7 -22 -13 -26 -13 -5 0 -3 6 4 13 7 8 19 14 26 14 11 0 10
-4 -4 -14z m-681 -20 c-15 -13 -28 -28 -28 -35 0 -6 -6 -13 -13 -16 -10 -3
-13 5 -10 29 2 27 7 33 22 31 10 -2 15 1 12 6 -3 6 6 9 20 8 l25 -1 -28 -22z
m517 12 c9 -10 9 -15 1 -15 -6 0 -11 4 -11 9 0 5 -8 12 -17 14 -15 4 -15 5 -2
6 9 0 22 -6 29 -14z m-1246 -10 c-6 -16 -24 -21 -24 -7 0 11 11 22 21 22 5 0
6 -7 3 -15z m1335 -7 c0 -13 -3 -17 -6 -10 -2 6 -10 9 -16 5 -7 -4 -6 1 2 10
18 22 21 21 20 -5z m105 7 c3 -8 1 -15 -4 -15 -6 0 -10 5 -10 12 0 9 -3 9 -12
0 -7 -7 -19 -12 -27 -12 -10 1 -7 6 9 15 32 18 37 18 44 0z m121 -24 c-6 -5
-25 10 -25 20 0 5 6 4 14 -3 8 -7 12 -15 11 -17z m-795 15 c0 -2 -7 -7 -16
-10 -8 -3 -12 -2 -9 4 6 10 25 14 25 6z m445 -34 c-3 -3 -11 0 -18 7 -9 10 -8
11 6 5 10 -3 15 -9 12 -12z m110 8 c3 -6 -1 -7 -9 -4 -18 7 -21 14 -7 14 6 0
13 -4 16 -10z m141 1 c-4 -5 0 -11 6 -14 7 -3 3 -4 -9 -4 -17 1 -19 4 -11 14
12 15 22 18 14 4z m54 -12 c0 -5 -4 -7 -10 -4 -5 3 -10 -2 -10 -11 0 -10 -3
-15 -6 -11 -9 9 3 37 16 37 5 0 10 -5 10 -11z m-160 -39 c12 -7 10 -9 -8 -7
-12 0 -22 5 -22 9 0 11 12 10 30 -2z m90 6 c0 -3 -4 -8 -10 -11 -5 -3 -10 -1
-10 4 0 6 5 11 10 11 6 0 10 -2 10 -4z m117 -22 c-9 -9 -28 6 -21 18 4 6 10 6
17 -1 6 -6 8 -13 4 -17z m-172 -34 c3 -5 1 -10 -4 -10 -6 0 -11 5 -11 10 0 6
2 10 4 10 3 0 8 -4 11 -10z m155 -25 c0 -5 -5 -3 -10 5 -5 8 -10 20 -10 25 0
6 5 3 10 -5 5 -8 10 -19 10 -25z m-71 1 c-2 -2 -17 -6 -34 -9 -16 -4 -24 -4
-17 -1 6 3 10 10 7 15 -4 5 0 6 8 3 8 -3 19 0 23 7 6 11 8 11 12 0 2 -7 2 -14
1 -15z m41 14 c0 -5 -5 -10 -11 -10 -5 0 -7 5 -4 10 3 6 8 10 11 10 2 0 4 -4
4 -10z m-1588 -82 c-8 -8 -8 -2 -1 57 1 11 4 5 6 -14 3 -18 0 -38 -5 -43z
m1623 33 c3 -5 -8 -16 -23 -24 -23 -11 -29 -11 -29 -1 0 7 4 11 8 8 4 -2 14 2
21 10 16 18 15 18 23 7z m-85 -15 c-4 -4 -16 -4 -26 2 -16 9 -14 10 8 9 15 -1
23 -6 18 -11z m-180 -6 c0 -5 -5 -10 -11 -10 -5 0 -7 5 -4 10 3 6 8 10 11 10
2 0 4 -4 4 -10z m192 -17 c-6 -3 -9 -10 -6 -16 4 -7 1 -7 -7 1 -12 11 -12 14
1 22 8 5 17 6 20 3 3 -3 -1 -8 -8 -10z m95 -5 c-3 -8 -6 -5 -6 6 -1 11 2 17 5
13 3 -3 4 -12 1 -19z m-1402 2 c3 -5 -3 -10 -14 -10 -12 0 -21 -7 -21 -15 0
-9 6 -12 18 -9 14 5 14 4 2 -4 -8 -6 -18 -8 -22 -6 -5 3 -12 -5 -17 -18 l-8
-23 -7 23 c-6 17 -3 28 11 38 10 9 12 13 6 9 -7 -3 -13 -4 -13 0 0 5 37 23 52
24 4 1 10 -3 13 -9z m1377 -12 c-7 -7 -12 -8 -12 -2 0 6 3 14 7 17 3 4 9 5 12
2 2 -3 -1 -11 -7 -17z m-152 1 c0 -5 -4 -7 -10 -4 -5 3 -10 1 -10 -4 0 -6 -5
-11 -11 -11 -8 0 -8 5 1 15 14 17 30 20 30 4z m210 -9 c0 -5 -5 -10 -11 -10
-5 0 -7 5 -4 10 3 6 8 10 11 10 2 0 4 -4 4 -10z m-35 -10 c-3 -5 2 -10 11 -10
10 0 15 -3 11 -6 -10 -10 -39 5 -32 16 3 5 8 10 11 10 3 0 2 -4 -1 -10z m-175
-10 c0 -5 -5 -10 -11 -10 -5 0 -7 5 -4 10 3 6 8 10 11 10 2 0 4 -4 4 -10z
m547 -6 c-3 -3 -12 -4 -19 -1 -8 3 -5 6 6 6 11 1 17 -2 13 -5z m-500 -33 c0
-11 -5 -17 -9 -15 -11 7 -10 34 1 34 6 0 9 -9 8 -19z m104 -18 c-12 -20 -14
-14 -5 12 4 9 9 14 11 11 3 -2 0 -13 -6 -23z m44 7 c3 -5 2 -10 -4 -10 -5 0
-13 5 -16 10 -3 6 -2 10 4 10 5 0 13 -4 16 -10z m-305 -26 c0 -2 -7 -4 -15 -4
-8 0 -15 4 -15 10 0 5 7 7 15 4 8 -4 15 -8 15 -10z m276 0 c-4 -9 -1 -24 6
-33 7 -9 8 -13 4 -9 -11 10 -38 -11 -30 -23 3 -5 -3 -6 -12 -2 -10 4 -13 8 -7
10 7 3 17 20 23 39 6 19 14 34 17 34 3 0 2 -7 -1 -16z m-51 -14 c3 -5 1 -10
-4 -10 -6 0 -11 5 -11 10 0 6 2 10 4 10 3 0 8 -4 11 -10z m85 0 c0 -5 -2 -10
-4 -10 -3 0 -8 5 -11 10 -3 6 -1 10 4 10 6 0 11 -4 11 -10z m-325 -10 c-8 -13
17 -13 33 0 7 5 6 3 -2 -6 -9 -11 -21 -14 -36 -9 -18 6 -20 9 -9 16 18 11 22
11 14 -1z m221 -8 c15 -10 14 -35 -3 -50 -16 -15 -17 -8 -3 18 12 22 -7 41
-20 20 -5 -8 -10 -9 -14 -2 -3 6 0 13 6 15 18 8 22 8 34 -1z m-233 -50 c-3
-12 -9 -19 -14 -16 -5 3 -4 14 2 25 13 26 20 21 12 -9z m201 -3 c-3 -5 -10 -7
-15 -3 -5 3 -7 10 -3 15 3 5 10 7 15 3 5 -3 7 -10 3 -15z m-1314 0 c0 -6 -7
-9 -14 -6 -10 4 -13 1 -10 -8 3 -8 -1 -21 -9 -29 -13 -14 -16 -14 -21 1 -4 9
-1 20 6 25 7 4 9 8 5 8 -5 0 -5 5 -2 10 8 14 45 13 45 -1z m1240 -49 c0 -5 -7
-10 -16 -10 -8 0 -12 5 -9 10 3 6 10 10 16 10 5 0 9 -4 9 -10z m100 -20 c0 -5
-2 -10 -4 -10 -3 0 -8 5 -11 10 -3 6 -1 10 4 10 6 0 11 -4 11 -10z m-125 -10
c3 -5 1 -10 -4 -10 -6 0 -11 5 -11 10 0 6 2 10 4 10 3 0 8 -4 11 -10z m-122
-7 c-7 -2 -19 -2 -25 0 -7 3 -2 5 12 5 14 0 19 -2 13 -5z m167 -3 c0 -5 -7
-10 -16 -10 -8 0 -12 5 -9 10 3 6 10 10 16 10 5 0 9 -4 9 -10z m-163 -26 c-3
-3 -12 -4 -19 -1 -8 3 -5 6 6 6 11 1 17 -2 13 -5z m157 -6 c-3 -4 -12 -8 -20
-8 -8 0 -13 4 -10 8 3 5 12 9 20 9 8 0 13 -4 10 -9z m-1450 -43 c3 -8 1 -15
-4 -15 -6 0 -10 7 -10 15 0 8 2 15 4 15 2 0 6 -7 10 -15z m362 0 c-15 -8 -33
-15 -39 -15 -11 0 -36 -30 -37 -44 0 -5 8 -2 18 7 24 22 39 22 21 1 -20 -24
-52 -33 -69 -20 -12 9 -13 8 -4 -4 6 -8 10 -31 9 -50 -1 -19 6 -46 14 -60 10
-15 11 -21 3 -16 -39 24 -56 142 -20 140 14 -1 15 2 8 16 -15 28 34 57 100 59
25 1 25 1 -4 -14z m1074 11 c0 -3 -4 -8 -10 -11 -5 -3 -10 -1 -10 4 0 6 5 11
10 11 6 0 10 -2 10 -4z m-1010 -36 c8 -5 11 -10 5 -10 -5 0 -17 5 -25 10 -8 5
-10 10 -5 10 6 0 17 -5 25 -10z m225 0 c3 -6 -1 -13 -9 -16 -9 -3 -16 -10 -16
-15 0 -4 7 -5 17 -2 11 4 14 3 9 -6 -4 -6 -16 -9 -27 -6 -15 5 -17 3 -12 -11
4 -11 2 -15 -4 -11 -18 11 -23 47 -6 47 8 0 12 4 9 9 -4 5 0 12 6 14 20 8 26
8 33 -3z m-625 -31 c0 -6 -4 -7 -10 -4 -5 3 -10 11 -10 16 0 6 5 7 10 4 6 -3
10 -11 10 -16z m1450 2 c0 -5 -9 -7 -20 -4 -11 3 -20 7 -20 9 0 2 9 4 20 4 11
0 20 -4 20 -9z m-1416 -87 c3 -8 2 -12 -4 -9 -6 3 -10 10 -10 16 0 14 7 11 14
-7z m1628 -46 c-7 -7 -12 -21 -12 -32 0 -10 -3 -17 -6 -13 -10 10 5 57 18 57
9 0 9 -3 0 -12z m-1372 -13 c7 -9 8 -15 2 -15 -5 0 -12 7 -16 15 -3 8 -4 15
-2 15 2 0 9 -7 16 -15z m851 -32 c40 -20 66 -43 49 -43 -6 0 -9 -4 -5 -9 3 -5
0 -13 -6 -17 -7 -4 -9 -3 -6 3 10 16 -48 34 -62 20 -8 -8 -14 -7 -23 2 -10 11
-10 13 0 7 23 -13 35 5 13 21 -12 8 -26 11 -31 8 -6 -3 -10 -1 -10 4 0 15 23
14 39 -1 11 -11 13 -10 8 5 -8 21 -8 21 34 0z m162 0 c-20 -7 -15 -23 7 -23
11 0 20 4 20 9 0 16 37 0 68 -30 27 -26 33 -28 56 -18 14 7 26 16 26 21 0 5 5
6 10 3 6 -4 -4 -17 -22 -29 l-33 -23 -35 33 c-33 32 -69 47 -55 24 4 -6 1 -18
-7 -27 -10 -13 -11 -17 0 -21 14 -4 -31 -52 -49 -52 -6 0 -8 -3 -6 -7 3 -5 -2
-14 -10 -22 -13 -12 -14 -11 -8 10 4 13 13 34 21 45 12 21 10 34 -8 34 -4 0
-7 -3 -7 -7 3 -19 -2 -33 -12 -33 -6 0 -7 5 -2 13 16 26 13 47 -6 47 -24 0
-36 -16 -19 -23 8 -4 9 -6 2 -6 -6 -1 -17 5 -23 13 -10 12 -8 17 8 25 23 13
49 5 72 -21 21 -24 26 -23 31 7 5 21 3 23 -15 14 -14 -8 -18 -8 -13 0 5 7 -2
11 -19 11 -22 0 -24 3 -16 18 5 10 20 18 33 19 13 0 17 -1 11 -4z m-63 -17 c0
-2 -7 -7 -16 -10 -8 -3 -12 -2 -9 4 6 10 25 14 25 6z m411 -23 c17 -44 4 -57
-31 -32 -16 13 -49 26 -72 30 l-43 6 40 2 c38 1 79 -18 97 -43 11 -16 10 8 -2
38 -5 14 -7 26 -5 26 3 0 10 -12 16 -27z m-1036 -23 c3 -5 -3 -20 -15 -32 -16
-17 -23 -19 -32 -10 -10 10 -10 15 2 22 8 5 11 10 5 10 -5 0 -3 5 5 10 19 12
27 12 35 0z m605 -40 c-8 -5 -19 -10 -25 -10 -5 0 -3 5 5 10 8 5 20 10 25 10
6 0 3 -5 -5 -10z m-49 -37 c-12 -20 -14 -14 -5 12 4 9 9 14 11 11 3 -2 0 -13
-6 -23z m55 -36 c-14 -18 -24 -36 -21 -38 2 -3 -5 -5 -16 -5 -18 0 -18 2 -5
12 9 6 16 15 16 19 0 9 43 52 49 49 1 -2 -9 -18 -23 -37z m-962 -13 c3 -8 2
-12 -4 -9 -6 3 -10 10 -10 16 0 14 7 11 14 -7z m850 1 c-25 -19 -40 -19 -24 0
7 8 20 15 28 15 13 0 12 -3 -4 -15z m46 -9 c0 -2 -9 -6 -20 -9 -11 -3 -18 -1
-14 4 5 9 34 13 34 5z m-850 -16 c8 -5 11 -12 7 -16 -4 -4 -15 0 -24 9 -18 18
-8 23 17 7z m790 -20 c0 -5 -4 -10 -10 -10 -5 0 -10 5 -10 10 0 6 5 10 10 10
6 0 10 -4 10 -10z m-725 -28 c-3 -3 -11 0 -18 7 -9 10 -8 11 6 5 10 -3 15 -9
12 -12z m319 -72 c16 0 26 -3 22 -7 -10 -10 -79 -4 -91 9 -7 8 -3 9 15 4 14
-3 38 -6 54 -6z m216 0 c0 -5 -8 -10 -17 -10 -15 0 -16 2 -3 10 19 12 20 12
20 0z m-100 -10 c0 -5 -2 -10 -4 -10 -3 0 -8 5 -11 10 -3 6 -1 10 4 10 6 0 11
-4 11 -10z m-33 -6 c-3 -3 -12 -4 -19 -1 -8 3 -5 6 6 6 11 1 17 -2 13 -5z"/>
<path d="M935 1300 c-3 -6 1 -7 9 -4 18 7 21 14 7 14 -6 0 -13 -4 -16 -10z"/>
<path d="M1810 1086 c0 -3 9 -10 20 -16 11 -6 20 -8 20 -6 0 3 -9 10 -20 16
-11 6 -20 8 -20 6z"/>
<path d="M1998 999 c-10 -5 -18 -14 -18 -19 0 -14 28 -1 34 16 6 16 6 16 -16
3z"/>
<path d="M2110 2255 c0 -8 7 -15 15 -15 8 0 15 7 15 15 0 8 -7 15 -15 15 -8 0
-15 -7 -15 -15z"/>
<path d="M2112 2221 c2 -7 7 -12 11 -12 12 1 9 15 -3 20 -7 2 -11 -2 -8 -8z"/>
<path d="M645 2109 c-10 -15 3 -25 16 -12 7 7 7 13 1 17 -6 3 -14 1 -17 -5z"/>
<path d="M668 2044 c-7 -7 2 -44 11 -44 4 0 8 11 9 25 2 23 -7 32 -20 19z"/>
<path d="M607 1844 c-8 -8 1 -24 14 -24 5 0 9 7 9 15 0 15 -12 20 -23 9z"/>
<path d="M575 1730 c3 -5 10 -10 16 -10 5 0 9 5 9 10 0 6 -7 10 -16 10 -8 0
-12 -4 -9 -10z"/>
<path d="M2645 1450 c-3 -5 1 -10 10 -10 9 0 13 5 10 10 -3 6 -8 10 -10 10 -2
0 -7 -4 -10 -10z"/>
<path d="M2620 1406 c0 -9 7 -16 16 -16 17 0 14 22 -4 28 -7 2 -12 -3 -12 -12z"/>
<path d="M2165 1350 c-14 -16 -14 -17 7 -15 37 4 38 4 38 18 0 19 -27 17 -45
-3z"/>
<path d="M2140 2440 c0 -5 5 -10 11 -10 5 0 7 5 4 10 -3 6 -8 10 -11 10 -2 0
-4 -4 -4 -10z"/>
<path d="M2840 2420 c0 -5 5 -10 11 -10 5 0 7 5 4 10 -3 6 -8 10 -11 10 -2 0
-4 -4 -4 -10z"/>
<path d="M915 2390 c-3 -5 1 -10 10 -10 9 0 13 5 10 10 -3 6 -8 10 -10 10 -2
0 -7 -4 -10 -10z"/>
<path d="M796 2363 c-11 -11 -6 -23 9 -23 8 0 15 4 15 9 0 13 -16 22 -24 14z"/>
<path d="M2077 2364 c-13 -13 -7 -24 14 -24 11 0 19 5 17 12 -5 14 -22 21 -31
12z"/>
<path d="M610 2360 c0 -5 5 -10 10 -10 6 0 10 5 10 10 0 6 -4 10 -10 10 -5 0
-10 -4 -10 -10z"/>
<path d="M360 2325 c0 -9 5 -15 11 -13 6 2 11 8 11 13 0 5 -5 11 -11 13 -6 2
-11 -4 -11 -13z"/>
<path d="M2240 2301 c0 -6 5 -13 10 -16 6 -3 10 1 10 9 0 9 -4 16 -10 16 -5 0
-10 -4 -10 -9z"/>
<path d="M780 2230 c0 -5 5 -10 10 -10 6 0 10 5 10 10 0 6 -4 10 -10 10 -5 0
-10 -4 -10 -10z"/>
<path d="M2335 2230 c3 -5 8 -10 11 -10 2 0 4 5 4 10 0 6 -5 10 -11 10 -5 0
-7 -4 -4 -10z"/>
<path d="M385 2211 c-3 -5 -1 -12 5 -16 5 -3 10 1 10 9 0 18 -6 21 -15 7z"/>
<path d="M2220 2170 c0 -5 5 -10 10 -10 6 0 10 5 10 10 0 6 -4 10 -10 10 -5 0
-10 -4 -10 -10z"/>
<path d="M90 2150 c0 -5 5 -10 10 -10 6 0 10 5 10 10 0 6 -4 10 -10 10 -5 0
-10 -4 -10 -10z"/>
<path d="M2475 2030 c-3 -5 1 -10 9 -10 9 0 16 5 16 10 0 6 -4 10 -9 10 -6 0
-13 -4 -16 -10z"/>
<path d="M2450 1994 c0 -8 5 -12 10 -9 6 3 10 10 10 16 0 5 -4 9 -10 9 -5 0
-10 -7 -10 -16z"/>
<path d="M2637 1976 c-3 -8 -2 -18 3 -21 13 -8 24 15 12 27 -6 6 -11 4 -15 -6z"/>
<path d="M2535 1971 c-3 -5 -1 -12 5 -16 5 -3 10 1 10 9 0 18 -6 21 -15 7z"/>
<path d="M2555 1940 c-3 -5 -1 -10 4 -10 6 0 11 5 11 10 0 6 -2 10 -4 10 -3 0
-8 -4 -11 -10z"/>
<path d="M536 1911 c-4 -5 -2 -12 3 -15 5 -4 12 -2 15 3 4 5 2 12 -3 15 -5 4
-12 2 -15 -3z"/>
<path d="M2585 1810 c-4 -6 -3 -16 3 -22 6 -6 12 -6 17 2 4 6 3 16 -3 22 -6 6
-12 6 -17 -2z"/>
<path d="M2484 1821 c4 -5 0 -11 -6 -14 -9 -3 -10 -8 -3 -15 7 -8 14 -4 22 14
9 20 8 24 -4 24 -8 0 -12 -4 -9 -9z"/>
<path d="M150 1794 c0 -17 22 -14 28 4 2 7 -3 12 -12 12 -9 0 -16 -7 -16 -16z"/>
<path d="M2420 1760 c0 -5 5 -10 10 -10 6 0 10 5 10 10 0 6 -4 10 -10 10 -5 0
-10 -4 -10 -10z"/>
<path d="M355 1750 c4 -6 11 -8 16 -5 14 9 11 15 -7 15 -8 0 -12 -5 -9 -10z"/>
<path d="M235 1741 c-6 -11 9 -23 19 -14 9 9 7 23 -3 23 -6 0 -12 -4 -16 -9z"/>
<path d="M290 1710 c0 -5 5 -10 10 -10 6 0 10 5 10 10 0 6 -4 10 -10 10 -5 0
-10 -4 -10 -10z"/>
<path d="M280 1610 c0 -5 5 -10 10 -10 6 0 10 5 10 10 0 6 -4 10 -10 10 -5 0
-10 -4 -10 -10z"/>
<path d="M230 1510 c0 -5 5 -10 10 -10 6 0 10 5 10 10 0 6 -4 10 -10 10 -5 0
-10 -4 -10 -10z"/>
<path d="M436 1323 c-11 -11 -6 -23 9 -23 8 0 15 4 15 9 0 13 -16 22 -24 14z"/>
<path d="M2860 1250 c0 -5 5 -10 10 -10 6 0 10 5 10 10 0 6 -4 10 -10 10 -5 0
-10 -4 -10 -10z"/>
<path d="M2895 1220 c-4 -6 -3 -16 3 -22 6 -6 12 -6 17 2 4 6 3 16 -3 22 -6 6
-12 6 -17 -2z"/>
<path d="M798 2993 c7 -3 16 -2 19 1 4 3 -2 6 -13 5 -11 0 -14 -3 -6 -6z"/>
<path d="M2113 2965 c-15 -16 -16 -25 -5 -25 4 0 13 9 20 20 14 23 3 26 -15 5z"/>
<path d="M20 2900 c0 -5 5 -10 11 -10 5 0 7 5 4 10 -3 6 -8 10 -11 10 -2 0 -4
-4 -4 -10z"/>
<path d="M0 2694 c0 -8 5 -12 10 -9 6 4 8 11 5 16 -9 14 -15 11 -15 -7z"/>
<path d="M1 2123 c-1 -13 1 -23 3 -23 14 0 36 14 36 22 0 6 -6 8 -14 5 -8 -3
-17 -1 -20 6 -2 7 -5 2 -5 -10z"/>
<path d="M2980 1710 c0 -5 5 -10 10 -10 6 0 10 5 10 10 0 6 -4 10 -10 10 -5 0
-10 -4 -10 -10z"/>
</g>
</svg>
