<?xml version="1.0" standalone="no"?>
<!DOCTYPE svg PUBLIC "-//W3C//DTD SVG 20010904//EN"
 "http://www.w3.org/TR/2001/REC-SVG-20010904/DTD/svg10.dtd">
<svg version="1.0" xmlns="http://www.w3.org/2000/svg"
 width="300.000000pt" height="300.000000pt" viewBox="0 0 300.000000 300.000000"
 preserveAspectRatio="xMidYMid meet">
<metadata>
Created by potrace 1.10, written by Peter Selinger 2001-2011
</metadata>
<g transform="translate(0.000000,300.000000) scale(0.100000,-0.100000)"
fill="#000000" stroke="none">
<path d="M776 2985 c4 -8 17 -15 29 -15 25 0 42 16 30 28 -3 3 -10 0 -15 -8
-7 -12 -12 -12 -22 -2 -17 17 -29 15 -22 -3z"/>
<path d="M1090 2955 c-16 -19 0 -40 37 -50 40 -10 51 10 23 40 -27 29 -42 31
-60 10z"/>
<path d="M1792 2958 c-16 -16 -15 -33 4 -48 22 -19 54 12 38 37 -14 22 -27 26
-42 11z"/>
<path d="M675 2931 c18 -7 18 -8 1 -18 -18 -10 -17 -12 8 -28 25 -17 28 -17
44 -1 24 24 4 50 -39 53 -25 2 -29 0 -14 -6z m46 -26 c0 -13 -41 -19 -41 -7 0
11 20 22 33 18 5 -1 8 -6 8 -11z"/>
<path d="M1325 2910 c-22 -24 -14 -38 8 -15 19 18 40 20 35 3 -3 -7 -11 -13
-18 -13 -7 0 -15 -6 -17 -12 -7 -19 32 -16 48 3 9 11 10 20 2 32 -15 25 -37
26 -58 2z"/>
<path d="M2486 2907 c-20 -15 -14 -37 9 -37 19 0 28 17 18 35 -8 13 -12 13
-27 2z"/>
<path d="M1422 2858 c-16 -16 -15 -33 3 -48 11 -9 19 -9 28 -2 9 8 16 6 25 -8
13 -21 7 -45 -16 -72 -12 -14 -12 -20 -2 -33 13 -16 36 -20 43 -7 11 18 17 62
8 60 -5 -2 -9 2 -9 7 0 6 3 9 7 8 3 -1 6 12 6 29 0 22 -6 33 -20 38 -12 4 -27
15 -34 24 -16 19 -23 20 -39 4z"/>
<path d="M774 2795 c-4 -9 -2 -21 4 -27 15 -15 44 -1 40 19 -4 23 -36 29 -44
8z"/>
<path d="M1893 2724 c-3 -8 -1 -20 5 -26 13 -13 55 0 46 14 -4 6 0 14 7 19 10
6 4 9 -19 9 -20 0 -35 -6 -39 -16z"/>
<path d="M0 2720 c0 -5 5 -10 10 -10 6 0 10 -7 10 -15 0 -8 -4 -15 -10 -15 -5
0 -10 -4 -10 -10 0 -17 19 -11 30 11 9 15 8 24 -1 35 -13 16 -29 19 -29 4z"/>
<path d="M266 2607 c-21 -32 -15 -57 14 -57 13 0 24 10 30 26 13 33 13 34 -4
34 -8 0 -16 6 -18 12 -3 8 -12 1 -22 -15z"/>
<path d="M1400 2620 c-10 -6 -11 -10 -2 -10 6 0 12 -7 12 -15 0 -20 24 -19 41
3 12 15 12 16 -2 5 -9 -7 -19 -10 -22 -6 -12 11 -8 21 11 26 14 4 14 5 -3 6
-11 0 -27 -4 -35 -9z"/>
<path d="M1983 2614 c-3 -8 2 -23 11 -32 15 -15 17 -15 32 0 21 21 11 48 -16
48 -11 0 -23 -7 -27 -16z"/>
<path d="M34 2585 c-8 -19 3 -35 26 -35 22 0 33 23 17 39 -15 15 -37 14 -43
-4z"/>
<path d="M495 2586 c-21 -15 -15 -43 12 -52 10 -3 31 -12 48 -19 21 -10 33
-11 42 -3 20 16 16 27 -14 40 -16 7 -37 20 -49 30 -17 15 -23 16 -39 4z m75
-46 c0 -5 7 -7 15 -4 8 4 15 1 15 -5 0 -6 -11 -11 -25 -11 -16 0 -25 6 -25 15
0 8 5 15 10 15 6 0 10 -4 10 -10z"/>
<path d="M2253 2553 c-18 -7 -16 -27 5 -46 16 -15 21 -15 38 -3 32 24 -5 66
-43 49z"/>
<path d="M1418 2494 c-3 -2 -24 -6 -49 -9 -24 -3 -72 -13 -106 -21 -34 -9 -67
-13 -73 -9 -6 4 -16 2 -23 -3 -7 -5 -38 -24 -69 -41 -119 -63 -114 -60 -249
-196 -54 -55 -103 -112 -110 -127 -8 -21 -18 -28 -39 -28 -33 0 -43 9 -29 26
14 17 4 44 -16 44 -23 0 -30 -28 -12 -48 10 -11 13 -27 10 -44 -3 -18 -1 -28
6 -28 7 0 11 7 9 16 -2 10 3 19 9 21 9 3 12 -4 11 -21 -1 -14 -8 -26 -15 -26
-8 0 -13 -11 -12 -27 2 -29 -34 -99 -61 -120 -12 -10 -13 -15 -3 -32 19 -30
17 -72 -2 -65 -18 7 -20 -12 -2 -20 7 -4 8 -8 2 -11 -15 -8 -9 -269 8 -350 8
-38 18 -81 22 -95 4 -14 9 -37 12 -52 3 -15 9 -25 14 -22 5 3 9 -2 9 -11 0 -8
12 -34 26 -56 14 -23 23 -43 20 -46 -3 -4 5 -16 17 -27 13 -12 22 -27 19 -34
-2 -7 1 -12 6 -12 6 0 26 -16 45 -35 19 -19 33 -35 30 -35 -4 0 28 -30 66 -63
12 -9 25 -17 30 -17 5 0 11 -3 13 -7 2 -5 23 -18 47 -31 69 -35 106 -57 111
-63 3 -4 46 -15 95 -24 50 -9 98 -21 108 -26 29 -15 226 -11 307 6 41 9 87 19
103 22 15 3 27 10 27 15 0 5 6 8 13 5 6 -2 32 6 57 19 25 13 51 24 58 24 16 0
144 87 186 127 16 15 42 28 58 29 16 1 48 11 72 22 51 24 77 20 128 -19 85
-67 122 -62 106 14 -23 112 -23 109 21 145 27 22 44 45 51 71 8 32 40 77 40
58 0 -9 71 14 89 29 13 12 16 28 14 75 -3 59 3 69 25 47 15 -15 16 -3 1 23 -5
11 -15 17 -21 13 -16 -10 -1 46 21 76 10 14 40 41 68 60 110 76 89 115 -66
127 -62 4 -88 1 -141 -17 -35 -12 -76 -30 -91 -41 -34 -24 -59 -24 -60 -1 -1
38 -10 99 -20 136 -6 21 -8 41 -5 44 3 3 2 10 -3 16 -5 6 -14 37 -20 68 -7 31
-20 67 -30 80 -22 27 -64 98 -89 148 -9 19 -21 38 -26 41 -5 4 -9 26 -10 49
-1 50 -24 72 -54 53 -22 -13 -46 0 -112 59 -57 51 -236 124 -330 135 -19 2
-46 6 -60 8 -35 7 -178 14 -182 9z m111 -41 c6 -10 11 -12 11 -5 0 14 60 17
60 2 0 -5 5 -10 11 -10 5 0 7 5 4 10 -7 11 45 2 55 -9 3 -3 24 -6 48 -7 29 0
47 -7 57 -20 8 -10 15 -14 15 -7 0 9 10 8 38 -4 20 -8 39 -18 42 -22 3 -3 18
-12 33 -19 15 -6 33 -17 40 -22 7 -6 31 -24 55 -41 34 -24 42 -34 37 -50 -6
-18 -4 -20 13 -15 15 5 31 -6 71 -51 28 -31 51 -64 51 -73 0 -9 11 -27 25 -40
14 -13 25 -28 25 -33 0 -6 14 -32 32 -60 29 -45 49 -114 51 -177 1 -14 4 -27
8 -30 3 -3 9 -15 13 -27 6 -18 3 -23 -11 -24 -17 -1 -17 -2 1 -6 17 -4 18 -12
11 -90 -6 -72 -11 -89 -31 -108 -13 -12 -21 -25 -18 -28 3 -3 -3 -3 -14 0 -16
4 -19 1 -15 -21 3 -14 2 -33 -1 -42 -5 -13 -9 -14 -21 -4 -8 7 -15 8 -15 3 0
-5 11 -16 25 -23 14 -7 25 -20 25 -27 0 -8 5 -11 10 -8 16 10 11 -31 -5 -45
-12 -10 -18 -10 -32 1 -16 13 -17 12 -4 -3 12 -16 11 -18 -3 -18 -14 0 -20 11
-17 32 0 4 -6 5 -15 1 -11 -4 -12 -8 -4 -13 8 -5 0 -19 -23 -45 -26 -28 -40
-36 -56 -32 -12 3 -19 1 -15 -4 3 -5 -9 -9 -26 -9 -17 0 -33 6 -36 13 -12 32
-9 74 8 105 10 17 13 32 8 32 -5 0 -12 -11 -16 -25 -6 -23 -34 -37 -34 -17 0
12 -97 7 -161 -8 -140 -33 -289 -134 -289 -195 0 -13 2 -14 14 -3 8 7 12 15
10 17 -7 8 18 31 28 25 11 -7 40 15 33 27 -8 11 109 74 175 94 30 9 87 19 126
22 l72 5 -5 -45 c-5 -39 -2 -47 18 -60 36 -23 127 -12 141 18 15 34 63 57 111
53 34 -2 42 1 45 15 7 35 -8 67 -40 83 -17 9 -27 19 -22 23 5 3 19 26 32 52
34 68 102 133 179 171 59 29 78 33 153 35 47 1 101 -2 120 -6 l35 -7 -53 -28
c-70 -36 -119 -89 -138 -151 -15 -50 -11 -121 8 -157 8 -16 3 -18 -36 -18 -59
0 -102 -35 -113 -93 -7 -36 -13 -44 -43 -53 -48 -16 -58 -53 -35 -131 10 -32
23 -64 28 -71 5 -7 8 -15 5 -17 -2 -3 -27 17 -56 45 -73 70 -136 79 -200 25
-29 -24 -42 -24 -42 2 0 8 4 11 10 8 5 -3 22 1 37 9 16 8 24 15 20 16 -5 0
-17 -5 -28 -11 -17 -8 -25 -5 -51 19 -30 31 -68 47 -68 31 0 -5 -9 -9 -21 -9
-16 0 -20 4 -15 18 6 16 5 16 -8 -1 -10 -13 -15 -14 -18 -6 -3 9 -6 7 -11 -4
-5 -13 -1 -17 19 -17 16 0 23 -4 18 -11 -5 -8 -1 -8 14 0 18 9 19 8 14 -12 -5
-20 -4 -20 11 -8 9 7 17 20 17 27 0 20 10 17 37 -8 l23 -21 -69 -69 c-38 -37
-75 -68 -81 -68 -6 0 -8 5 -4 12 4 7 3 8 -4 4 -7 -4 -12 -12 -12 -18 0 -16
-51 -52 -83 -59 -23 -6 -27 -4 -23 10 4 9 -3 6 -14 -8 -14 -16 -31 -24 -51
-24 -18 0 -25 -3 -17 -8 8 -5 3 -11 -17 -19 -21 -8 -30 -8 -36 1 -5 8 -9 8
-15 -2 -18 -28 -88 -42 -232 -46 -112 -4 -142 -2 -140 8 2 9 -15 14 -56 16
-61 4 -115 22 -68 23 13 0 21 4 17 9 -3 6 -17 6 -35 -1 -20 -6 -35 -7 -43 0
-6 5 -33 17 -59 27 -27 10 -48 22 -48 26 0 5 -5 9 -11 9 -14 0 -133 85 -150
108 -11 13 -9 13 9 -2 19 -16 22 -17 17 -3 -4 9 -17 19 -28 23 -27 8 -67 43
-67 59 0 7 -10 20 -21 31 -22 20 -44 62 -40 78 1 5 -8 15 -19 23 -12 9 -19 21
-16 30 3 8 -4 27 -15 43 -12 15 -18 33 -14 40 4 6 0 19 -8 28 -16 20 -30 65
-16 56 12 -7 11 3 -1 26 -7 13 -7 21 0 25 5 3 10 11 10 16 0 6 -4 7 -10 4 -6
-3 -11 0 -11 7 -1 7 -3 22 -5 33 -12 74 -12 96 1 92 7 -3 15 2 18 12 3 14 0
17 -16 13 -12 -3 -18 -1 -14 5 3 5 9 40 13 78 3 38 11 81 17 95 5 14 12 34 13
45 2 11 9 39 15 63 10 34 16 43 30 39 10 -3 20 2 23 10 5 11 2 13 -10 9 -12
-5 -15 -2 -10 10 3 9 9 27 12 40 3 13 12 24 20 24 8 0 14 10 14 23 0 13 9 32
21 42 20 19 20 19 9 -10 -9 -28 -9 -29 5 -11 8 11 15 26 15 32 0 27 23 63 44
68 12 3 35 20 51 38 17 18 22 26 13 19 -33 -25 -18 5 20 40 51 49 126 101 192
134 30 15 58 32 61 37 3 5 13 6 21 3 9 -4 33 -1 55 5 37 12 191 36 245 39 16
0 31 -6 37 -16z m611 -199 c0 -14 -21 -19 -33 -7 -9 9 13 34 24 27 5 -3 9 -12
9 -20z"/>
<path d="M1105 2359 c-74 -39 -185 -113 -185 -125 0 -3 21 11 48 31 26 20 92
59 147 86 55 27 93 49 85 49 -8 0 -51 -19 -95 -41z"/>
<path d="M1835 2357 c39 -20 86 -46 105 -58 l35 -22 -30 27 c-16 15 -47 34
-67 42 -21 9 -36 20 -33 24 3 5 0 12 -6 16 -8 5 -9 3 -4 -6 6 -10 4 -11 -11
-6 -56 23 -50 14 11 -17z"/>
<path d="M1292 2133 c-6 -3 -10 -9 -6 -14 3 -5 -4 -9 -15 -9 -21 0 -37 -32
-25 -51 4 -8 3 -9 -4 -5 -17 10 -15 -16 3 -40 13 -17 14 -17 15 -1 0 9 -5 17
-11 17 -6 0 -4 7 5 15 8 8 18 24 21 35 3 11 12 20 19 20 21 0 40 27 24 32 -7
3 -19 3 -26 1z"/>
<path d="M2113 2017 c0 -6 -4 -21 -8 -32 -8 -20 -8 -20 9 0 15 19 16 19 9 1
-4 -13 -3 -17 5 -12 16 10 15 31 -1 45 -10 8 -14 7 -14 -2z"/>
<path d="M2191 1988 c-1 -9 4 -20 9 -23 15 -9 1 -27 -16 -21 -8 3 -11 0 -7
-10 7 -18 5 -18 33 6 13 11 18 20 11 20 -6 0 -16 10 -21 23 -6 16 -9 17 -9 5z"/>
<path d="M1425 1940 c3 -5 -3 -10 -14 -10 -16 0 -21 -6 -21 -24 0 -14 5 -28
10 -31 6 -3 10 1 10 9 0 9 12 23 26 32 19 13 22 19 12 25 -18 12 -30 11 -23
-1z"/>
<path d="M843 1689 c-13 -5 -23 -11 -23 -14 0 -4 6 -3 13 0 6 4 4 0 -6 -9 -14
-10 -17 -21 -11 -38 l7 -23 8 23 c5 13 13 21 18 17 5 -3 13 0 17 6 4 8 3 9 -4
5 -7 -4 -12 -1 -12 8 0 8 8 16 18 18 9 2 13 6 7 10 -5 3 -20 2 -32 -3z"/>
<path d="M820 1490 c-8 -5 -10 -10 -5 -10 6 0 4 -4 -3 -8 -7 -5 -10 -16 -6
-25 5 -14 8 -14 20 -2 8 7 14 18 14 24 0 6 5 11 10 11 6 0 10 5 10 10 0 13
-20 13 -40 0z"/>
<path d="M977 1330 c-37 -11 -57 -28 -51 -44 3 -8 -2 -16 -10 -19 -10 -4 -15
-18 -14 -44 1 -39 25 -99 35 -89 3 3 1 11 -4 18 -17 22 -10 80 11 92 24 14 58
46 49 46 -3 0 -15 -7 -25 -17 -10 -9 -18 -12 -18 -7 1 14 26 44 37 44 6 0 24
7 39 15 29 15 29 15 4 14 -14 0 -38 -5 -53 -9z"/>
<path d="M1282 1303 c-6 -2 -10 -9 -6 -14 3 -5 0 -9 -5 -9 -6 0 -11 -10 -11
-22 0 -20 2 -20 29 8 35 35 32 53 -7 37z"/>
<path d="M746 1112 c12 -10 27 -28 33 -41 7 -12 15 -21 18 -18 8 9 -42 77 -57
77 -11 -1 -10 -5 6 -18z"/>
<path d="M1720 1119 c11 -7 0 -9 -40 -8 -76 3 -114 0 -107 -7 4 -4 28 -7 54
-7 27 0 51 -5 55 -11 6 -8 8 -8 8 1 0 6 9 10 20 8 12 -2 24 4 30 16 9 16 7 19
-12 19 -19 0 -20 -2 -8 -11z"/>
<path d="M1818 1089 c44 -28 41 -34 -5 -9 -41 22 -63 25 -63 10 0 -5 9 -10 20
-10 10 0 24 -8 29 -17 6 -10 11 -15 11 -11 0 4 11 3 25 -2 14 -5 32 -7 41 -3
12 4 4 13 -30 34 -25 16 -49 29 -53 29 -5 0 7 -10 25 -21z"/>
<path d="M1905 1046 c-18 -13 -17 -14 23 -13 23 1 42 5 42 10 0 4 -4 7 -9 7
-5 0 -15 2 -23 5 -7 3 -22 -1 -33 -9z"/>
<path d="M1272 1033 c-6 -3 -10 -9 -6 -14 3 -5 1 -9 -5 -9 -6 0 -8 -7 -5 -15
9 -21 19 -19 37 9 17 25 7 38 -21 29z"/>
<path d="M2912 2488 c-8 -8 -9 -15 -1 -25 16 -18 36 -16 44 5 5 14 4 15 -6 5
-17 -17 -29 -16 -29 1 0 8 8 17 18 19 13 4 13 5 2 6 -9 0 -21 -4 -28 -11z"/>
<path d="M2060 2375 c-20 -24 5 -66 33 -56 31 12 43 36 28 55 -17 20 -45 20
-61 1z m50 -19 c0 -15 -24 -28 -34 -19 -13 14 -5 33 14 33 11 0 20 -6 20 -14z"/>
<path d="M787 2373 c-13 -12 -7 -41 10 -47 9 -4 23 0 31 8 13 12 13 18 2 30
-13 17 -32 21 -43 9z"/>
<path d="M346 2335 c-3 -8 2 -22 11 -30 14 -15 18 -15 31 -1 8 8 12 22 9 30
-8 20 -43 21 -51 1z"/>
<path d="M2227 2306 c-7 -19 18 -40 39 -32 8 3 14 14 12 23 -4 22 -43 29 -51
9z"/>
<path d="M2453 2024 c-24 -24 -25 -27 -9 -42 16 -16 19 -15 42 11 13 15 24 33
24 40 0 7 -5 4 -11 -6 -6 -9 -15 -15 -20 -11 -6 4 -6 11 2 20 20 24 -1 15 -28
-12z"/>
<path d="M2624 1985 c-8 -21 2 -45 19 -45 8 0 20 7 27 15 10 12 10 18 0 30 -7
8 -19 15 -27 15 -7 0 -16 -7 -19 -15z"/>
<path d="M2465 1820 c-8 -26 3 -62 18 -57 16 5 40 55 32 67 -11 17 -43 11 -50
-10z m38 -2 c-4 -7 -8 -17 -8 -22 0 -5 -6 -11 -12 -13 -14 -5 -16 6 -7 31 3 9
13 16 21 16 9 0 11 -5 6 -12z"/>
<path d="M139 1811 c-20 -17 -21 -20 -6 -21 9 0 17 5 17 10 0 6 7 10 15 10 23
0 18 -19 -7 -30 l-23 -9 23 0 c28 -1 40 25 20 45 -13 13 -18 12 -39 -5z"/>
<path d="M2570 1815 c-11 -13 -11 -19 3 -32 21 -21 49 -9 45 19 -4 28 -30 35
-48 13z"/>
<path d="M224 1745 c-4 -9 -2 -21 4 -27 15 -15 44 -1 40 19 -4 23 -36 29 -44
8z"/>
<path d="M2977 1733 c-12 -12 -7 -41 8 -47 18 -7 20 10 3 18 -10 5 -10 7 0 12
6 3 12 10 12 15 0 11 -14 12 -23 2z"/>
</g>
</svg>
